PathFileType	4	(X/Y/Z)	Patient4_TMGait_0pt6_02_left_18.trc.trc
DataRate	CameraRate	NumFrames	NumMarkers	Units	OrigDataRate	OrigDataStartFrame	OrigNumFrames
80.000000000000	80.000000000000	4	33	mm	80.000000000000	89	       141
Frame#	Time	Sacral			L.Shoulder			Chest			R.Shoulder			Neck			R.ASIS			L.ASIS			R.Thigh.Superior			R.Thigh.Lateral			R.Thigh.Inferior			R.Patella			L.Thigh.Superior			L.Thigh.Lateral			L.Thigh.Inferior			L.Patella			L.Shank.Superior			L.Shank.Lateral			L.Shank.Inferior			R.Shank.Superior			R.Shank.Lateral			R.Shank.Inferior			R.Heel			R.Midfoot.Superior			R.Midfoot.Lateral			R.Toe			L.Heel			L.Midfoot.Lateral			L.Midfoot.Superior			L.Toe			L.Elbow			L.Wrist			R.Elbow			R.Wrist			
		X1	Y1	Z1	X2	Y2	Z2	X3	Y3	Z3	X4	Y4	Z4	X5	Y5	Z5	X6	Y6	Z6	X7	Y7	Z7	X8	Y8	Z8	X9	Y9	Z9	X10	Y10	Z10	X11	Y11	Z11	X12	Y12	Z12	X13	Y13	Z13	X14	Y14	Z14	X15	Y15	Z15	X16	Y16	Z16	X17	Y17	Z17	X18	Y18	Z18	X19	Y19	Z19	X20	Y20	Z20	X21	Y21	Z21	X22	Y22	Z22	X23	Y23	Z23	X24	Y24	Z24	X25	Y25	Z25	X26	Y26	Z26	X27	Y27	Z27	X28	Y28	Z28	X29	Y29	Z29	X30	Y30	Z30	X31	Y31	Z31	X32	Y32	Z32	X33	Y33	Z33	

89	23.180000000000	766.794696361847	1002.406439856976	510.165747850378	933.919806348323	1427.197071361629	312.638928311596	1038.876364218907	1363.847359146875	474.182491247694	955.175090296547	1444.695833908121	644.032501089812	933.556445790533	1493.047167765639	461.019769750408	998.955840708193	943.623076474580	621.197165789020	1022.960230476218	980.274235744911	347.411671992573	1054.295844481178	748.062394026568	588.525518896572	981.701007963637	633.672703129743	647.785676630489	1060.799062203167	588.523154098541	564.489712272249	1068.187936028462	500.086512454441	568.686109222235	1019.040000149838	743.150378099204	368.196245529641	930.871506461807	628.678108969919	305.284112768013	1019.840489655961	543.526379174345	359.648392314474	1010.990018532037	456.746232805683	355.847577501116	939.226470161565	400.715100319852	354.059037398200	795.383528440097	363.213829742649	310.153548747256	777.818491478851	236.843963187614	369.914270508932	1046.950200015833	410.072180852434	575.481451533611	985.319255054743	300.823872216605	638.426739827372	1030.968146755602	210.027875924790	571.494102046010	906.684020441308	42.227641444091	544.050625907690	1078.840848937766	98.232560987267	570.280274432219	994.097391101959	37.070162587305	614.083701002152	1201.172411992136	46.139570275408	590.189281891900	585.789407680888	181.042034726273	413.908886626359	639.241623470550	126.141914347372	337.578975926282	744.234682719156	132.721660872122	355.936858965009	817.708147427300	30.900335614339	338.605042075508	959.167845269470	1076.176035880018	194.017722550674	1201.288932318506	993.855062757055	228.343031879378	883.739106955253	1114.595307616299	784.393414201845	997.250355973462	879.525968581175	790.929612895727	
90	23.192500000000	765.932896244994	1003.096172481668	513.287402169461	932.457010933646	1427.495402219016	314.632790666503	1039.122757677457	1363.666705550169	474.915276674304	957.671074535280	1444.571597358213	645.799462448520	934.083993379232	1493.269776426198	463.138930717234	998.971823154485	943.880335856336	622.363061123092	1022.730345297221	981.303341606723	348.491902308781	1051.998363939744	747.108583576644	590.636013256050	978.088818290724	633.606139241468	649.614988192778	1056.470830852971	587.740901624527	566.071368163035	1062.797269435469	499.497886989550	569.958525823369	1023.168292057345	746.331927991052	370.166199372702	940.142720759699	629.590048198250	306.065865889825	1031.634307011711	546.742770298867	360.835069355715	1024.409385161345	458.863468424619	356.480733771297	951.290731602991	402.633312120356	354.605755233244	806.306544133598	369.381574704268	310.685014490085	785.064824223636	243.575916659163	370.296576190400	1041.238763293641	409.609787498409	576.652720278640	979.231482305457	300.493624258811	639.409847180653	1024.230976529261	209.686022499029	572.047255026973	899.112553867050	42.217694834559	544.200036474567	1071.360568853043	98.024364519187	570.479456825749	986.502064405071	36.970681479875	614.236331421468	1193.648908015136	45.717034171262	590.307409512961	591.524767740240	196.127643066280	414.217588102628	642.356299906362	138.475067532179	337.812409398084	747.915054061839	139.759386762745	356.142935553844	815.745808203161	31.091108485487	338.563243844644	952.445371699220	1075.441259740813	196.838260713224	1191.491993181677	982.747218594753	228.947520911597	893.091382562348	1114.212323000505	789.286846933845	1017.035855839070	884.484050158038	793.455559415480	
91	23.205000000000	764.898490548346	1003.718450288147	516.192482775884	930.896313280318	1427.687641560439	316.448452297155	1039.240454762214	1363.343348273628	475.456454930217	960.092427387175	1444.340854387385	647.389550740933	934.576256470165	1493.405560752769	465.065943200576	998.722701627439	944.098777757617	623.448260601576	1019.329122473194	980.851476771937	349.423072094237	1049.535438300269	746.255859071224	592.546064362532	974.505787576146	633.571765060689	651.379680829440	1052.125694377485	587.001346954224	567.582227860094	1057.438914982537	498.944820279881	571.265501203869	1026.954503375339	749.797563389100	372.187270707402	949.037456481150	631.016832846212	306.781980607090	1042.861575429097	550.559600999008	361.992481050134	1037.445057988201	461.686296735463	357.121180040400	963.297752659947	405.070870792423	355.132082807244	817.416618224597	375.384770571995	311.243581079906	793.124522197880	250.108388501731	370.780989263135	1035.532036060580	409.168783562967	577.814828014004	973.117573048989	300.196511807673	640.371121620846	1017.489394282572	209.368053987503	572.601923785663	891.507766454602	42.228008019905	544.367708706774	1063.868790729117	97.823474105858	570.659855252228	978.889490750978	36.885756947495	614.387284252582	1186.103395946916	45.273065454697	590.402085593001	598.543087088882	209.583262445809	414.675292710340	647.173365923443	149.826521010197	338.147560202114	753.059196359759	146.750975220846	356.494253046591	816.108154107954	31.967276262123	338.560458512790	945.485667466226	1074.590547567240	199.649575863570	1180.769779216225	971.101429672981	229.379673666221	902.811993904942	1113.857377679780	794.010164618230	1036.674868183570	889.803665577932	795.713214174877	
92	23.217500000000	763.731420763247	1004.316612626713	518.868166786394	929.297713919698	1427.829189604950	318.082673782290	1039.240045110660	1362.940844739436	475.832922632527	962.406194352229	1444.080117731957	648.793078130720	935.047899148814	1493.505417023495	466.785941060936	998.214128883144	944.319645765423	624.490193391548	1013.025528970429	979.046706317115	350.293070424595	1046.935765699347	745.530718881490	594.281240191422	970.913477206346	633.584016717878	653.056874616325	1047.772615899076	586.316394123295	569.037619360227	1052.108403931409	498.439548467252	572.586114063284	1030.319761444972	753.545076509061	374.234092616813	957.371709417771	632.973554710350	307.432467642121	1053.368407846393	554.957458241489	363.035538140171	1049.932987789666	465.210533747135	357.658463985587	975.109772707160	408.009699572921	355.572732926938	828.555364727597	381.037974259179	311.801392771124	802.005994447252	256.179046057276	371.312281218337	1029.830924442331	408.769629524410	578.950982015914	966.973637641971	299.960229894009	641.299163382031	1010.747444353645	209.097716594789	573.161618339736	883.891349597820	42.264158719884	544.556804877938	1056.380166310677	97.649404786733	570.838454897269	971.279908123620	36.820643079380	614.542863831223	1178.551233559842	44.844543071958	590.488215609784	606.781350785058	220.793782762073	415.255322922588	653.765173167362	159.625103105222	338.562109078717	759.804407693080	153.328479988334	356.938184059548	819.211941353298	33.529328016132	338.575086902510	938.305587404756	1073.700544939924	202.477936962357	1169.064525775690	959.033746055340	229.655606784425	912.885589262668	1113.603343690740	798.482288473255	1056.107128126155	895.514747486720	797.659856206322	
